<?xml version="1.0" encoding="UTF-8"?>
<svg width="20px" height="20px" viewBox="0 0 20 20" version="1.1" xmlns="http://www.w3.org/2000/svg" xmlns:xlink="http://www.w3.org/1999/xlink">
    <!-- Generator: Sketch 47.1 (45422) - http://www.bohemiancoding.com/sketch -->
    <title>001-social-linkedin-circular-button</title>
    <desc>Created with Sketch.</desc>
    <defs></defs>
    <g id="Symbols" stroke="none" stroke-width="1" fill="none" fill-rule="evenodd">
        <g id="Topo" transform="translate(-1153.000000, -40.000000)" fill-rule="nonzero" fill="#000000">
            <g id="001-social-linkedin-circular-button" transform="translate(1153.000000, 40.000000)">
                <path d="M10,0 C4.47691406,0 0,4.47691406 0,10 C0,15.5230859 4.47691406,20 10,20 C15.5230859,20 20,15.5230859 20,10 C20,4.47691406 15.5230859,0 10,0 Z M10,18.4375 C5.33996094,18.4375 1.5625,14.6600391 1.5625,10 C1.5625,5.33996094 5.33996094,1.5625 10,1.5625 C14.6600391,1.5625 18.4375,5.33996094 18.4375,10 C18.4375,14.6600391 14.6600391,18.4375 10,18.4375 Z" id="Shape"></path>
                <path d="M5.00367188,14.9957422 L6.87867188,14.9957422 L6.87867188,7.49574219 L5.00367188,7.49574219 L5.00367188,14.9957422 Z M12.5036719,7.49574219 C10.8984375,7.52261719 10.1086719,8.69265625 10.0036719,8.74574219 L10.0036719,7.49574219 L8.12867188,7.49574219 L8.12867188,14.9957422 L10.0036719,14.9957422 L10.0036719,10.6207422 C10.0036719,10.4602734 10.3991797,9.17542969 11.8786719,9.37074219 C12.6733594,9.42261719 13.1017969,10.4736328 13.1286719,10.6207422 L13.1286719,14.9957422 L14.9963281,15.0042969 L14.9963281,9.81203125 C14.9304297,9.0625 14.5556641,7.52257813 12.5036719,7.49574219 Z M5.94117188,4.99574219 C5.42359375,4.99574219 5.00367188,5.41503906 5.00367188,5.93324219 C5.00367188,6.45144531 5.42359375,6.87074219 5.94117188,6.87074219 C6.45875,6.87074219 6.87867188,6.45144531 6.87867188,5.93324219 C6.87867188,5.41503906 6.45875,4.99574219 5.94117188,4.99574219 Z" id="Shape"></path>
            </g>
        </g>
    </g>
</svg>