<?xml version="1.0" encoding="UTF-8" standalone="no"?>
<svg
   xmlns:dc="http://purl.org/dc/elements/1.1/"
   xmlns:cc="http://creativecommons.org/ns#"
   xmlns:rdf="http://www.w3.org/1999/02/22-rdf-syntax-ns#"
   xmlns:svg="http://www.w3.org/2000/svg"
   xmlns="http://www.w3.org/2000/svg"
   viewBox="0 0 494.89334 430.74667"
   height="430.74667"
   width="494.89334"
   xml:space="preserve"
   id="svg2"
   version="1.1"><metadata
     id="metadata8"><rdf:RDF><cc:Work
         rdf:about=""><dc:format>image/svg+xml</dc:format><dc:type
           rdf:resource="http://purl.org/dc/dcmitype/StillImage" /></cc:Work></rdf:RDF></metadata><defs
     id="defs6" /><g
     transform="matrix(1.3333333,0,0,-1.3333333,0,430.74667)"
     id="g10"><g
       transform="scale(0.1)"
       id="g12"><path
         id="path14"
         style="fill:#7d7f81;fill-opacity:1;fill-rule:nonzero;stroke:none"
         d="m 203.379,156.5 v -47.191 c -5.918,6.562 -11.816,11.382 -17.695,14.441 -5.883,3.07 -12.176,4.602 -18.887,4.602 -12.406,0 -22.457,-4.243 -30.141,-12.711 -7.679,-8.481 -11.523,-19.5316 -11.523,-33.1801 0,-12.6914 3.91,-23.2304 11.742,-31.6015 7.828,-8.3711 17.805,-12.5508 29.922,-12.5508 6.711,0 13.004,1.543 18.887,4.6016 5.879,3.0703 11.777,7.9218 17.695,14.5507 V 10.1797 C 196.523,6.85938 189.703,4.37109 182.926,2.71094 176.145,1.05078 169.285,0.21875 162.359,0.21875 c -8.66,0 -16.644,1.01953 -23.968,3.08203 -7.328,2.0586 -14.055,5.17969 -20.184,9.35942 -11.836,7.9414 -20.8554,17.9296 -27.0547,29.9804 -6.207,12.0508 -9.3125,25.6211 -9.3125,40.6914 0,12.1172 1.9688,23.148 5.8985,33.066 3.9375,9.911 9.8672,18.922 17.8047,27 7.504,7.723 15.965,13.493 25.379,17.321 9.414,3.812 19.894,5.73 31.437,5.73 6.926,0 13.786,-0.828 20.567,-2.488 6.777,-1.66 13.597,-4.152 20.453,-7.461" /><path
         id="path16"
         style="fill:#7d7f81;fill-opacity:1;fill-rule:nonzero;stroke:none"
         d="m 305.758,36.5898 c 11.972,0 21.875,4.3907 29.707,13.1993 7.828,8.8007 11.742,19.9101 11.742,33.332 0,13.2695 -3.969,24.3399 -11.902,33.2189 -7.942,8.879 -17.789,13.308 -29.547,13.308 -11.981,0 -21.879,-4.406 -29.707,-13.25 -7.832,-8.839 -11.742,-19.9292 -11.742,-33.2769 0,-13.5703 3.855,-24.7227 11.582,-33.4492 7.714,-8.7305 17.672,-13.0821 29.867,-13.0821 z m 84.629,46.5313 c 0,-11.4102 -2.094,-22.082 -6.278,-32.0313 C 379.922,41.1289 373.828,32.2109 365.82,24.3516 357.738,16.5586 348.508,10.5508 338.113,6.32813 327.727,2.10938 316.938,0 305.758,0 294.43,0 283.59,2.10938 273.238,6.32813 262.883,10.5508 253.77,16.5586 245.906,24.3516 c -8.152,7.8593 -14.34,16.8203 -18.558,26.8398 -4.219,10.0195 -6.332,20.668 -6.332,31.9297 0,11.3281 2.113,21.9809 6.332,31.9809 4.218,9.988 10.406,18.918 18.558,26.777 7.864,7.793 16.977,13.801 27.332,18.031 10.352,4.211 21.192,6.32 32.52,6.32 11.254,0 22.094,-2.109 32.519,-6.32 10.422,-4.23 19.606,-10.238 27.543,-18.031 7.934,-7.777 14.016,-16.699 18.235,-26.731 4.222,-10.027 6.332,-20.6988 6.332,-32.0269" /><path
         id="path18"
         style="fill:#7d7f81;fill-opacity:1;fill-rule:nonzero;stroke:none"
         d="M 417.441,4.21875 V 162.66 h 41.664 l 59.844,-81.4881 c 1.156,-1.6602 3.047,-4.9922 5.684,-10.0117 2.633,-5.0118 5.539,-10.9883 8.711,-17.9102 -0.864,6.5586 -1.496,12.4102 -1.895,17.5313 -0.394,5.1171 -0.594,9.6601 -0.594,13.6406 V 162.66 h 41.45 V 4.21875 h -41.45 L 471.012,86.0391 c -1.231,1.6601 -3.16,5 -5.793,10.0117 -2.637,5.0192 -5.5,10.9182 -8.602,17.6872 0.863,-6.636 1.492,-12.519 1.895,-17.6286 0.394,-5.1289 0.593,-9.668 0.593,-13.6485 V 4.21875 h -41.664" /><path
         id="path20"
         style="fill:#7d7f81;fill-opacity:1;fill-rule:nonzero;stroke:none"
         d="m 613.32,55.4102 c 6.422,-7.2813 12.754,-12.7305 18.993,-16.3399 6.242,-3.6094 12.46,-5.4101 18.667,-5.4101 5.774,0 10.52,1.5507 14.235,4.6484 3.715,3.1016 5.57,7.043 5.57,11.8008 0,5.2617 -1.605,9.332 -4.812,12.1797 -3.215,2.8398 -10.481,5.7812 -21.809,8.8203 -15.512,4.1797 -26.476,9.6289 -32.898,16.332 -6.422,6.707 -9.629,15.9106 -9.629,27.5976 0,15.16 5.062,27.512 15.203,37.07 10.133,9.563 23.281,14.34 39.445,14.34 8.731,0 17.012,-1.168 24.836,-3.519 7.828,-2.34 15.242,-5.899 22.242,-10.66 l -13.527,-31.059 c -4.91,4.18 -9.938,7.34 -15.102,9.469 -5.156,2.129 -10.261,3.191 -15.308,3.191 -5.196,0 -9.414,-1.242 -12.664,-3.73 -3.246,-2.493 -4.867,-5.68 -4.867,-9.582 0,-3.957 1.421,-7.137 4.273,-9.52 2.852,-2.379 8.348,-4.648 16.504,-6.82 l 1.945,-0.539 c 17.606,-4.7581 29.188,-9.9886 34.742,-15.6917 3.75,-3.8867 6.602,-8.5664 8.551,-14.0195 1.949,-5.4493 2.918,-11.4883 2.918,-18.129 0,-16.8007 -5.515,-30.3203 -16.555,-40.5195 C 683.23,5.10156 668.516,0 650.117,0 c -11.039,0 -21.09,1.87891 -30.14,5.62891 -9.055,3.75 -17.766,9.63279 -26.133,17.64059 l 19.476,32.1407" /><path
         id="path22"
         style="fill:#7d7f81;fill-opacity:1;fill-rule:nonzero;stroke:none"
         d="m 734.102,162.66 h 43.07 V 85.6094 c 0,-11.3281 0.289,-19.461 0.871,-24.4102 0.574,-4.9375 1.547,-9.0703 2.918,-12.3906 1.66,-4.0391 4.547,-7.1289 8.656,-9.2578 4.113,-2.1211 9.129,-3.1914 15.047,-3.1914 5.91,0 10.91,1.0703 14.988,3.1914 4.075,2.1289 6.981,5.2187 8.711,9.2578 1.367,3.3203 2.344,7.4531 2.922,12.3906 0.574,4.9492 0.867,13.0821 0.867,24.4102 V 96.4297 162.66 h 42.965 V 78.8984 c 0,-17.3867 -1.051,-30.207 -3.14,-38.4765 C 869.883,32.1602 866.348,25.1094 861.371,19.2617 855.961,12.8516 848.531,8.03125 839.078,4.82031 829.625,1.60938 818.152,0 804.664,0 c -13.566,0 -25.055,1.60938 -34.469,4.82031 -9.414,3.21094 -16.867,8.03129 -22.347,14.44139 -4.91,5.8477 -8.422,12.8985 -10.551,21.1602 -2.129,8.2695 -3.195,21.0898 -3.195,38.4765 V 95.3516 162.66" /><path
         id="path24"
         style="fill:#7d7f81;fill-opacity:1;fill-rule:nonzero;stroke:none"
         d="M 907.906,4.21875 V 162.66 h 43.18 V 41.2305 h 53.674 V 4.21875 h -96.854" /><path
         id="path26"
         style="fill:#7d7f81;fill-opacity:1;fill-rule:nonzero;stroke:none"
         d="M 1040.8,4.21875 V 125.219 h -35.5 v 37.441 h 114.18 v -37.441 h -35.5 V 4.21875 h -43.18" /><path
         id="path28"
         style="fill:#7d7f81;fill-opacity:1;fill-rule:nonzero;stroke:none"
         d="m 1214.72,36.5898 c 11.97,0 21.87,4.3907 29.7,13.1993 7.83,8.8007 11.75,19.9101 11.75,33.332 0,13.2695 -3.97,24.3399 -11.91,33.2189 -7.94,8.879 -17.79,13.308 -29.54,13.308 -11.98,0 -21.88,-4.406 -29.71,-13.25 -7.83,-8.839 -11.74,-19.9292 -11.74,-33.2769 0,-13.5703 3.85,-24.7227 11.58,-33.4492 7.71,-8.7305 17.67,-13.0821 29.87,-13.0821 z m 84.63,46.5313 c 0,-11.4102 -2.1,-22.082 -6.28,-32.0313 -4.19,-9.9609 -10.28,-18.8789 -18.29,-26.7382 -8.08,-7.793 -17.31,-13.8008 -27.7,-18.02347 C 1236.68,2.10938 1225.9,0 1214.72,0 c -11.33,0 -22.17,2.10938 -32.52,6.32813 -10.36,4.22267 -19.47,10.23047 -27.33,18.02347 -8.16,7.8593 -14.34,16.8203 -18.56,26.8398 -4.22,10.0195 -6.33,20.668 -6.33,31.9297 0,11.3281 2.11,21.9809 6.33,31.9809 4.22,9.988 10.4,18.918 18.56,26.777 7.86,7.793 16.97,13.801 27.33,18.031 10.35,4.211 21.19,6.32 32.52,6.32 11.25,0 22.09,-2.109 32.52,-6.32 10.42,-4.23 19.6,-10.238 27.54,-18.031 7.93,-7.777 14.01,-16.699 18.23,-26.731 4.23,-10.027 6.34,-20.6988 6.34,-32.0269" /><path
         id="path30"
         style="fill:#7d7f81;fill-opacity:1;fill-rule:nonzero;stroke:none"
         d="m 1366.88,87.7695 h 8 c 9.31,0 16.11,1.5899 20.4,4.7618 4.3,3.1796 6.44,8.1597 6.44,14.9297 0,7.937 -2,13.59 -6,16.949 -4.01,3.352 -10.73,5.031 -20.19,5.031 h -8.65 z M 1326.4,4.21875 V 162.66 h 45.13 c 17.67,0 29.99,-0.808 36.96,-2.43 6.96,-1.621 12.97,-4.351 18.01,-8.179 5.7,-4.321 10.09,-9.84 13.15,-16.551 3.07,-6.719 4.6,-14.109 4.6,-22.191 0,-12.258 -3.01,-22.2387 -9.04,-29.9184 -6.02,-7.6797 -14.8,-12.789 -26.34,-15.3203 l 43.18,-63.85155 h -48.81 L 1366.88,66.2305 V 4.21875 h -40.48" /><path
         id="path32"
         style="fill:#7d7f81;fill-opacity:1;fill-rule:nonzero;stroke:none"
         d="M 1469.58,4.21875 V 162.66 h 43.61 V 4.21875 h -43.61" /><path
         id="path34"
         style="fill:#7d7f81;fill-opacity:1;fill-rule:nonzero;stroke:none"
         d="m 1589.92,63.4219 h 42.97 l -16.13,52.2771 c -0.51,1.582 -1.19,4.141 -2.05,7.672 -0.87,3.539 -1.99,8.09 -3.36,13.649 -0.94,-3.899 -1.86,-7.622 -2.76,-11.161 -0.9,-3.527 -1.82,-6.918 -2.76,-10.16 z M 1529.42,4.21875 1584.08,162.66 h 54.11 L 1692.95,4.21875 h -42.96 l -8.01,28.35935 h -61.36 l -8.23,-28.35935 h -42.97" /><path
         id="path36"
         style="fill:#7d7f81;fill-opacity:1;fill-rule:nonzero;stroke:none"
         d="M 1777.48,4.21875 V 162.66 h 97.07 v -34.738 h -54.98 V 100.43 h 51.84 V 66.4492 h -51.84 V 39.7188 h 54.98 V 4.21875 h -97.07" /><path
         id="path38"
         style="fill:#7d7f81;fill-opacity:1;fill-rule:nonzero;stroke:none"
         d="M 1995.32,4.21875 V 125.219 h -35.5 V 162.66 H 2074 v -37.441 h -35.49 V 4.21875 h -43.19" /><path
         id="path40"
         style="fill:#7d7f81;fill-opacity:1;fill-rule:nonzero;stroke:none"
         d="M 2095.11,4.21875 V 162.66 h 97.07 v -34.738 h -54.97 V 100.43 h 51.83 V 66.4492 h -51.83 V 39.7188 h 54.97 V 4.21875 h -97.07" /><path
         id="path42"
         style="fill:#7d7f81;fill-opacity:1;fill-rule:nonzero;stroke:none"
         d="m 2335.58,156.5 v -47.191 c -5.92,6.562 -11.82,11.382 -17.7,14.441 -5.88,3.07 -12.18,4.602 -18.89,4.602 -12.41,0 -22.45,-4.243 -30.13,-12.711 -7.69,-8.481 -11.53,-19.5316 -11.53,-33.1801 0,-12.6914 3.91,-23.2304 11.74,-31.6015 7.82,-8.3711 17.81,-12.5508 29.92,-12.5508 6.71,0 13.01,1.543 18.89,4.6016 5.88,3.0703 11.78,7.9218 17.7,14.5507 V 10.1797 c -6.86,-3.32032 -13.68,-5.80861 -20.46,-7.46876 -6.78,-1.66016 -13.64,-2.49219 -20.56,-2.49219 -8.66,0 -16.65,1.01953 -23.97,3.08203 -7.33,2.0586 -14.06,5.17969 -20.19,9.35942 -11.83,7.9414 -20.85,17.9296 -27.05,29.9804 -6.21,12.0508 -9.31,25.6211 -9.31,40.6914 0,12.1172 1.97,23.148 5.9,33.066 3.93,9.911 9.86,18.922 17.8,27 7.5,7.723 15.96,13.493 25.38,17.321 9.42,3.812 19.9,5.73 31.44,5.73 6.92,0 13.78,-0.828 20.56,-2.488 6.78,-1.66 13.6,-4.152 20.46,-7.461" /><path
         id="path44"
         style="fill:#7d7f81;fill-opacity:1;fill-rule:nonzero;stroke:none"
         d="M 2359.93,4.21875 V 162.66 h 41.66 l 59.86,-81.4881 c 1.15,-1.6602 3.04,-4.9922 5.68,-10.0117 2.63,-5.0118 5.53,-10.9883 8.71,-17.9102 -0.87,6.5586 -1.5,12.4102 -1.89,17.5313 -0.41,5.1171 -0.6,9.6601 -0.6,13.6406 V 162.66 h 41.44 V 4.21875 h -41.44 L 2413.5,86.0391 c -1.22,1.6601 -3.16,5 -5.79,10.0117 -2.63,5.0192 -5.5,10.9182 -8.61,17.6872 0.87,-6.636 1.51,-12.519 1.9,-17.6286 0.4,-5.1289 0.59,-9.668 0.59,-13.6485 V 4.21875 h -41.66" /><path
         id="path46"
         style="fill:#7d7f81;fill-opacity:1;fill-rule:nonzero;stroke:none"
         d="m 2626.81,36.5898 c 11.97,0 21.87,4.3907 29.7,13.1993 7.83,8.8007 11.74,19.9101 11.74,33.332 0,13.2695 -3.96,24.3399 -11.9,33.2189 -7.94,8.879 -17.79,13.308 -29.54,13.308 -11.99,0 -21.89,-4.406 -29.71,-13.25 -7.83,-8.839 -11.74,-19.9292 -11.74,-33.2769 0,-13.5703 3.86,-24.7227 11.57,-33.4492 7.73,-8.7305 17.68,-13.0821 29.88,-13.0821 z m 84.63,46.5313 c 0,-11.4102 -2.09,-22.082 -6.28,-32.0313 -4.18,-9.9609 -10.29,-18.8789 -18.29,-26.7382 -8.08,-7.793 -17.32,-13.8008 -27.71,-18.02347 C 2648.78,2.10938 2637.99,0 2626.81,0 c -11.33,0 -22.17,2.10938 -32.52,6.32813 -10.35,4.22267 -19.47,10.23047 -27.33,18.02347 -8.15,7.8593 -14.34,16.8203 -18.56,26.8398 -4.22,10.0195 -6.33,20.668 -6.33,31.9297 0,11.3281 2.11,21.9809 6.33,31.9809 4.22,9.988 10.41,18.918 18.56,26.777 7.86,7.793 16.98,13.801 27.33,18.031 10.35,4.211 21.19,6.32 32.52,6.32 11.25,0 22.09,-2.109 32.52,-6.32 10.43,-4.23 19.61,-10.238 27.54,-18.031 7.93,-7.777 14.02,-16.699 18.24,-26.731 4.22,-10.027 6.33,-20.6988 6.33,-32.0269" /><path
         id="path48"
         style="fill:#7d7f81;fill-opacity:1;fill-rule:nonzero;stroke:none"
         d="M 2738.49,4.21875 V 162.66 h 43.18 V 41.2305 h 53.67 V 4.21875 h -96.85" /><path
         id="path50"
         style="fill:#7d7f81;fill-opacity:1;fill-rule:nonzero;stroke:none"
         d="m 2930.59,36.5898 c 11.97,0 21.87,4.3907 29.7,13.1993 7.83,8.8007 11.74,19.9101 11.74,33.332 0,13.2695 -3.96,24.3399 -11.9,33.2189 -7.94,8.879 -17.79,13.308 -29.54,13.308 -11.99,0 -21.89,-4.406 -29.71,-13.25 -7.83,-8.839 -11.74,-19.9292 -11.74,-33.2769 0,-13.5703 3.86,-24.7227 11.57,-33.4492 7.73,-8.7305 17.68,-13.0821 29.88,-13.0821 z m 84.62,46.5313 c 0,-11.4102 -2.08,-22.082 -6.27,-32.0313 -4.18,-9.9609 -10.29,-18.8789 -18.3,-26.7382 -8.07,-7.793 -17.31,-13.8008 -27.7,-18.02347 C 2952.56,2.10938 2941.77,0 2930.59,0 c -11.33,0 -22.17,2.10938 -32.52,6.32813 -10.36,4.22267 -19.47,10.23047 -27.33,18.02347 -8.15,7.8593 -14.34,16.8203 -18.56,26.8398 -4.22,10.0195 -6.33,20.668 -6.33,31.9297 0,11.3281 2.11,21.9809 6.33,31.9809 4.22,9.988 10.41,18.918 18.56,26.777 7.86,7.793 16.97,13.801 27.33,18.031 10.35,4.211 21.19,6.32 32.52,6.32 11.25,0 22.09,-2.109 32.52,-6.32 10.43,-4.23 19.6,-10.238 27.53,-18.031 7.94,-7.777 14.03,-16.699 18.25,-26.731 4.22,-10.027 6.32,-20.6988 6.32,-32.0269" /><path
         id="path52"
         style="fill:#7d7f81;fill-opacity:1;fill-rule:nonzero;stroke:none"
         d="m 3117.6,62.5508 v 33.2305 h 84.84 c 0.07,-1.0821 0.13,-2.2696 0.17,-3.5704 0.03,-1.3007 0.05,-3.2109 0.05,-5.7421 0,-27.2696 -7.2,-48.4297 -21.6,-63.4688 -14.38,-15.05078 -34.64,-22.570312 -60.76,-22.570312 -12.84,0 -24.26,1.941402 -34.26,5.789062 -9.99,3.85935 -18.91,9.76175 -26.77,17.70315 -7.51,7.5781 -13.33,16.539 -17.48,26.8867 -4.15,10.3633 -6.22,21.2031 -6.22,32.5234 0,11.8399 2.01,22.707 6.05,32.629 4.04,9.918 10.07,18.848 18.08,26.789 7.94,7.719 17.04,13.559 27.32,17.531 10.28,3.969 21.38,5.949 33.28,5.949 15.51,0 29.24,-3.058 41.18,-9.199 11.94,-6.133 21.99,-15.261 30.14,-27.383 l -37.44,-17.957 c -4.48,6.129 -9.51,10.7 -15.1,13.68 -5.59,3 -11.85,4.5 -18.78,4.5 -12.92,0 -23.08,-4.312 -30.51,-12.93 -7.44,-8.632 -11.16,-20.4019 -11.16,-35.3316 0,-15.0899 3.72,-26.961 11.16,-35.6094 7.43,-8.6602 17.59,-12.9883 30.51,-12.9883 10.97,0 20.11,2.6875 27.43,8.0586 7.33,5.3789 11.61,12.5391 12.83,21.4805 h -42.96" /><path
         id="path54"
         style="fill:#7d7f81;fill-opacity:1;fill-rule:nonzero;stroke:none"
         d="M 3230.15,4.21875 V 162.66 h 43.61 V 4.21875 h -43.61" /><path
         id="path56"
         style="fill:#7d7f81;fill-opacity:1;fill-rule:nonzero;stroke:none"
         d="m 3350.49,63.4219 h 42.96 l -16.13,52.2771 c -0.5,1.582 -1.19,4.141 -2.06,7.672 -0.86,3.539 -1.98,8.09 -3.35,13.649 -0.93,-3.899 -1.86,-7.622 -2.76,-11.161 -0.9,-3.527 -1.82,-6.918 -2.75,-10.16 z M 3289.99,4.21875 3344.64,162.66 h 54.11 L 3453.52,4.21875 h -42.97 l -8.01,28.35935 h -61.37 l -8.22,-28.35935 h -42.96" /><path
         id="path58"
         style="fill:#7d7f81;fill-opacity:1;fill-rule:nonzero;stroke:none"
         d="m 2928.91,733.691 48.84,106.2 50.06,-106.039 z m 133.84,201.829 h -170 l -178.69,-334.95 152.3,-0.211 32.64,58.45 h 155.84 l 28.13,-58.239 h 160.94 l -181.16,334.95" /><path
         id="path60"
         style="fill:#7d7f81;fill-opacity:1;fill-rule:nonzero;stroke:none"
         d="m 544.219,733.852 49.105,106.41 50.27,-106.571 z m 134.105,202.027 h -170 L 329.688,600.57 l 151.406,-0.16 33.902,58.52 155.551,0.082 28.199,-58.442 h 160.828 l -181.25,335.309" /><path
         id="path62"
         style="fill:#7d7f81;fill-opacity:1;fill-rule:nonzero;stroke:none"
         d="m 918.75,600.648 145,-0.078 v 179.059 l 175,-178.559 h 147.5 l -0.94,334.809 H 1243.13 L 1242.5,747.781 1061.25,935.559 H 918.75 V 600.648" /><path
         id="path64"
         style="fill:#7d7f81;fill-opacity:1;fill-rule:nonzero;stroke:none"
         d="M 1613.13,600.57 H 1775 v 250 h 147.5 v 85 H 1465 l -0.31,-85 h 148.44 v -250" /><path
         id="path66"
         style="fill:#7d7f81;fill-opacity:1;fill-rule:nonzero;stroke:none"
         d="m 2011.56,935.41 -0.1,-334.84 h 380.02 l -0.23,88.75 -229.17,0.41 0.41,246.149 -150.93,-0.469" /><path
         id="path68"
         style="fill:#7d7f81;fill-opacity:1;fill-rule:nonzero;stroke:none"
         d="m 2481.25,935.57 h 150 V 599.941 h -150 V 935.57" /><path
         id="path70"
         style="fill:#608cbd;fill-opacity:1;fill-rule:nonzero;stroke:none"
         d="M 3456.07,271.211 H 86.0781 L 212.313,523.07 3348.03,527.602 3456.07,271.211" /><path
         id="path72"
         style="fill:#608cbd;fill-opacity:1;fill-rule:nonzero;stroke:none"
         d="m 1211.67,1803.9 560,946.67 560,-940 c -443.33,90 -1120,-6.67 -1120,-6.67 z M 2695,1747.24 1775,3230.57 851.664,1713.9 c 0,0 -650,-163.33 -851.664,-523.33 0,0 155,220 760,410 L 435,1047.23 h 320 l 376.67,623.34 c 0,0 726.66,106.67 1333.33,-73.33 l 336.67,-560.01 H 3135 l -256.66,413.34 c 0,0 456.66,-163.33 563.33,-570 l 270,236.66 c 0,0 -116.67,400.01 -1016.67,630.01" /></g></g></svg>