<?xml version="1.0" encoding="UTF-8"?>
<svg width="20px" height="20px" viewBox="0 0 20 20" version="1.1" xmlns="http://www.w3.org/2000/svg" xmlns:xlink="http://www.w3.org/1999/xlink">
    <!-- Generator: Sketch 47.1 (45422) - http://www.bohemiancoding.com/sketch -->
    <title>002-social-facebook-circular-button</title>
    <desc>Created with Sketch.</desc>
    <defs></defs>
    <g id="Symbols" stroke="none" stroke-width="1" fill="none" fill-rule="evenodd">
        <g id="Topo" transform="translate(-1189.000000, -40.000000)" fill-rule="nonzero" fill="#000000">
            <g id="002-social-facebook-circular-button" transform="translate(1189.000000, 40.000000)">
                <path d="M10,0 C4.47691406,0 0,4.47691406 0,10 C0,15.5230859 4.47691406,20 10,20 C15.5230859,20 20,15.5230859 20,10 C20,4.47691406 15.5230859,0 10,0 Z M10,18.4375 C5.33996094,18.4375 1.5625,14.6600391 1.5625,10 C1.5625,5.33996094 5.33996094,1.5625 10,1.5625 C14.6600391,1.5625 18.4375,5.33996094 18.4375,10 C18.4375,14.6600391 14.6600391,18.4375 10,18.4375 Z" id="Shape"></path>
                <path d="M12.3730469,8.46921875 L10.6335547,8.46921875 L10.6335547,7.1996875 C10.6335547,6.81027344 11.0363672,6.71996094 11.224375,6.71996094 C11.4111328,6.71996094 12.3480859,6.71996094 12.3480859,6.71996094 L12.3480859,5.00671875 L11.0601953,5 C9.30304687,5 8.90199219,6.27746094 8.90199219,7.0965625 L8.90199219,8.46925781 L7.62695312,8.46925781 L7.62695312,10.234375 L8.90199219,10.234375 C8.90199219,12.500625 8.90199219,15 8.90199219,15 L10.6335547,15 C10.6335547,15 10.6335547,12.4749609 10.6335547,10.234375 L12.1044922,10.234375 L12.3730469,8.46921875 Z" id="Shape"></path>
            </g>
        </g>
    </g>
</svg>